<svg xmlns="http://www.w3.org/2000/svg" viewBox="0 0 99.11 94.5" fill="#f0f0f0">
    <path d="M99.01,35.85c-.24-.72-.86-1.25-1.62-1.36l-31.83-4.57L51.29,1.11c-.34-.68-1.03-1.11-1.79-1.11h0c-.76,0-1.46.43-1.79,1.12l-14.18,28.85L1.71,34.65c-.75.11-1.38.64-1.61,1.36-.23.72-.04,1.52.51,2.05l23.06,22.41-5.38,31.7c-.13.75.18,1.51.8,1.96.35.25.76.38,1.17.38.32,0,.64-.08.93-.23l28.43-15.01,28.48,14.92c.67.35,1.49.29,2.11-.16.62-.45.92-1.21.79-1.96l-5.49-31.68,22.99-22.48c.54-.53.74-1.33.5-2.05Z" />
</svg>